# xmcd CD database file
#
# Track frame offsets:
#	150
#	23472
#	50407
#
# Disc length: 982 seconds
#
# Revision: 2
# Processed by: cddbd v1.5.1PL2 Copyright (c) Steve Scherf et al.
# Submitted via: CDex 1.51
#
DISCID=1703d403
DTITLE=徳永英明 - シングル「誓い」
DYEAR=1997
DGENRE=JPop
TTITLE0=誓い
TTITLE1=バランス
TTITLE2=誓い（No Vocal Edition）
EXTD=YEAR: 1997
EXTT0=
EXTT1=
EXTT2=
PLAYORDER=
